HIERARCHY
ROOT Hips
{
	OFFSET 0.00 0.00 0.00
	CHANNELS 6 Xposition Yposition Zposition Zrotation Xrotation Yrotation
	JOINT LeftUpLeg
	{
		OFFSET -0.0000 0.0000 -4.0122
		CHANNELS 3 Zrotation Xrotation Yrotation
		JOINT LeftLowLeg
		{
			OFFSET 0.0000 -17.8667 -3.1504
			CHANNELS 3 Zrotation Xrotation Yrotation
			JOINT LeftFoot
			{
				OFFSET 0.0000 -16.3749 -2.8873
				CHANNELS 3 Zrotation Xrotation Yrotation
				JOINT ltoes
				{
					OFFSET 5.9227 -3.3675 -0.5938
					CHANNELS 3 Zrotation Xrotation Yrotation
					End Site
					{
						OFFSET 3.9580 0.0000 0.0000
					}
				}
			}
		}
	}
	JOINT RightUpLeg
	{
		OFFSET 0.0000 0.0000 4.0122
		CHANNELS 3 Zrotation Xrotation Yrotation
		JOINT RightLowLeg
		{
			OFFSET -0.0000 -17.7908 3.1370
			CHANNELS 3 Zrotation Xrotation Yrotation
			JOINT RightFoot
			{
				OFFSET 0.0000 -16.5002 2.9094
				CHANNELS 3 Zrotation Xrotation Yrotation
				JOINT rtoes
				{
					OFFSET 5.7390 -3.2631 0.5754
					CHANNELS 3 Zrotation Xrotation Yrotation
					End Site
					{
						OFFSET 4.2293 0.0000 -0.0000
					}
				}
			}
		}
	}
	JOINT upperback
	{
		OFFSET 0.0000 0.0000 0.0000
		CHANNELS 3 Zrotation Xrotation Yrotation
		JOINT Chest
		{
			OFFSET -1.5371 10.3429 -0.1213
			CHANNELS 3 Zrotation Xrotation Yrotation
			JOINT Neck
			{
				OFFSET 0.5736 10.6318 -0.7589
				CHANNELS 3 Zrotation Xrotation Yrotation
				JOINT Head
				{
					OFFSET -0.1741 4.2217 0.1423
					CHANNELS 3 Zrotation Xrotation Yrotation
					End Site
					{
						OFFSET 0.4912 4.1605 0.1465
					}
				}
			}
			JOINT Chest
			{
				OFFSET 0.5736 10.6318 -0.7589
				CHANNELS 3 Zrotation Xrotation Yrotation
				JOINT LeftUpArm
				{
					OFFSET -0.0000 0.0000 -7.2422
					CHANNELS 3 Zrotation Xrotation Yrotation
					JOINT LeftLowArm
					{
						OFFSET -1.2117 -0.0000 -13.8493
						CHANNELS 3 Zrotation Xrotation Yrotation
						JOINT LeftHand
						{
							OFFSET 1.0710 -0.0000 -12.2418
							CHANNELS 3 Zrotation Xrotation Yrotation
							JOINT lfingers
							{
								OFFSET 0.1291 -0.0000 -1.4760
								CHANNELS 3 Zrotation Xrotation Yrotation
								End Site
								{
									OFFSET 0.1444 -0.0000 -1.6502
								}
							}
						}
					}
				}
			}
			JOINT Chest
			{
				OFFSET 0.5736 10.6318 -0.7589
				CHANNELS 3 Zrotation Xrotation Yrotation
				JOINT RightUpArm
				{
					OFFSET -0.0000 -0.0000 7.4537
					CHANNELS 3 Zrotation Xrotation Yrotation
					JOINT RightLowArm
					{
						OFFSET -1.1800 -0.0000 13.4870
						CHANNELS 3 Zrotation Xrotation Yrotation
						JOINT RightHand
						{
							OFFSET 1.0972 -0.0000 12.5410
							CHANNELS 3 Zrotation Xrotation Yrotation
							JOINT rfingers
							{
								OFFSET 0.1186 -0.0000 1.3551
								CHANNELS 3 Zrotation Xrotation Yrotation
								End Site
								{
									OFFSET 0.1325 -0.0000 1.5150
								}
							}
						}
					}
				}
			}
		}
	}
}
MOTION
Frames: 8
Frame Time: 0.033333
-64.2589 38.9445 65.3274 6.1824 3.5077 40.8964 1.3960 -15.6239 2.2344 -37.5674 -2.1008 6.1715 11.8681 0.5382 1.6109 -3.8413 -0.0227 0.6768 16.0515 13.1522 4.7569 -6.7806 0.0707 -1.1929 -25.3257 0.1278 -2.3760 29.2087 1.2869 4.9362 -13.2538 -2.1978 -4.0248 -0.2366 10.4742 -3.6203 -2.0115 1.4942 4.5423 7.1670 -7.1311 5.0119 -0.7566 -8.2215 -5.2762 20.5116 -75.3455 12.2215 -50.5890 34.7723 -20.1100 4.2991 -16.2036 20.0774 -2.4953 -26.4561 -0.5866 0.3521 -1.6542 12.0186 2.7101 72.7925 -21.4546 -43.5296 -26.1621 19.8981 -0.0101 -1.9369 -5.2992 -2.4953 26.4561 0.5866 
-63.4450 38.7566 64.5364 6.8003 4.3568 40.9944 -1.3327 -16.0325 1.7660 -38.0788 -2.1564 6.2432 12.6416 0.5304 1.3332 -2.5862 -0.0103 0.4559 17.2859 13.5151 4.5642 -11.6992 0.2099 -2.0490 -21.6026 0.0848 -2.1301 27.3718 1.1329 4.6500 -13.7487 -1.8351 -3.8973 -0.4585 9.8410 -3.4980 -5.5613 1.0284 5.4143 11.9382 -7.8649 6.2709 -0.7759 -7.9423 -5.5980 23.0751 -75.8950 14.9905 -46.1538 33.4288 -22.8855 4.3421 -14.7216 21.6358 -2.4953 -26.4561 -0.5866 0.3534 -1.7575 11.3716 -1.8802 73.1190 -17.3965 -42.8860 -25.6575 19.9941 -0.1006 -2.3022 -7.5029 -2.4953 26.4561 0.5866 
-62.6872 38.5120 63.9899 7.0640 5.2551 41.8466 -2.8471 -16.1013 1.4714 -39.6044 -2.3260 6.4540 12.7402 0.3182 0.3251 -0.7741 -0.0009 0.1365 17.2820 13.5604 5.0306 -14.6669 0.3294 -2.5589 -16.6377 0.3554 -2.6666 22.7050 0.7838 3.9026 -15.0384 -2.3051 -4.1526 0.2595 10.4309 -3.7181 -5.0768 0.4697 4.7690 12.5695 -7.6472 5.6838 -0.7663 -7.7782 -5.6441 22.2090 -76.5862 14.6148 -42.1695 32.0672 -25.3764 4.2074 -13.5604 22.4194 -2.4953 -26.4561 -0.5866 0.3896 -1.8522 11.8818 1.1307 73.3192 -21.7216 -42.9137 -26.1510 20.3639 -0.1430 -2.5081 -8.2644 -2.4953 26.4561 0.5866 
-61.9261 38.4039 63.3380 7.0493 5.6856 43.2217 -4.3345 -16.2525 -0.3296 -40.9700 -2.4826 6.6389 11.6907 0.2669 0.2970 3.0717 -0.0145 -0.5414 17.1259 13.1953 4.6177 -17.5578 0.4710 -3.0491 -11.2276 0.1337 -1.6659 15.1267 0.3502 2.6373 -15.6559 -2.1005 -4.6560 1.0816 11.0424 -4.3076 -4.3249 -0.4781 4.3071 12.3319 -7.3878 5.2222 -0.8050 -8.4917 -5.4355 21.4499 -76.7714 14.3999 -43.7098 32.5498 -24.3720 4.1631 -14.0330 21.7086 -2.4953 -26.4561 -0.5866 0.6126 -2.8891 11.9775 3.8626 73.8101 -25.0793 -43.0706 -26.2226 20.2986 -0.0293 -1.6841 -5.9972 -2.4953 26.4561 0.5866 
-61.1389 38.3736 62.7803 7.0052 5.9686 44.6313 -5.2214 -15.9840 -1.5869 -42.7038 -2.6877 6.8682 10.7455 0.1519 -0.1242 5.4644 -0.0459 -0.9621 15.7815 12.9695 4.0851 -17.0160 0.4426 -2.9578 -9.7793 0.2570 -2.3516 4.7256 0.0343 0.8323 -16.3350 -1.6063 -5.1745 2.3803 10.6529 -5.0000 -3.8048 -0.7812 3.7614 11.4659 -7.3982 4.6212 -0.7182 -7.9630 -5.1702 18.5942 -77.2709 12.5914 -44.9070 32.6062 -23.3963 4.0634 -13.4428 21.9918 -2.4953 -26.4561 -0.5866 0.5503 -2.6271 11.8357 4.9722 73.6322 -26.4208 -44.2481 -26.3592 19.5037 0.0111 -1.5231 -4.5822 -2.4953 26.4561 0.5866 
-60.3189 38.4519 62.2071 7.0092 6.0870 45.5848 -6.8607 -15.5038 -2.4341 -42.2413 -2.6323 6.8077 8.6554 0.1031 -0.0658 8.2028 -0.1034 -1.4416 15.3212 12.7847 2.4621 -18.0676 0.4985 -3.1348 -9.2570 0.1267 -1.5956 -2.0027 0.0062 -0.3531 -16.8397 -1.2278 -5.3228 3.4613 10.7456 -5.2991 -3.4486 -1.1004 3.1988 10.8591 -7.4945 4.0316 -0.7427 -8.2441 -5.1659 15.8805 -77.3559 10.5926 -45.7338 31.8026 -22.1881 3.6065 -12.3111 21.4680 -2.4953 -26.4561 -0.5866 0.5408 -2.6399 11.5808 4.6091 73.8886 -25.5482 -44.5106 -25.8885 18.9481 -0.0177 -1.3624 -5.7449 -2.4953 26.4561 0.5866 
-59.4727 38.6933 61.6799 7.1111 5.8319 46.0362 -7.6798 -14.2835 -1.8870 -42.0381 -2.6081 6.7809 4.9073 -0.0268 -0.7443 11.0658 -0.1879 -1.9395 14.3130 13.0276 1.0004 -18.0703 0.4987 -3.1353 -9.0483 -0.1065 -0.1098 -4.5103 0.0313 -0.7945 -17.2308 -1.1927 -5.3979 4.7285 11.9682 -5.5471 -3.4474 -2.1681 2.9143 9.8084 -6.7533 3.6362 -0.7496 -8.4225 -5.1042 18.4162 -78.1568 14.1429 -47.3327 31.4715 -20.6971 3.7683 -12.9699 21.3548 -2.4953 -26.4561 -0.5866 0.5697 -2.7272 11.8045 4.2130 73.3129 -24.7101 -45.0097 -25.5248 18.3043 -0.0042 -0.2249 -6.0625 -2.4953 26.4561 0.5866 
-58.5784 38.8782 61.0624 7.2797 5.9731 46.4219 -7.9662 -13.4321 -1.6703 -43.6536 -2.8030 6.9913 1.1586 -0.0353 -1.6853 13.7121 -0.2881 -2.3955 13.4137 13.2976 0.1419 -19.5873 0.5851 -3.3889 -7.6864 -0.1569 0.5231 -5.4456 0.0456 -0.9588 -17.4982 -1.2164 -5.7194 5.4113 12.3437 -5.9531 -3.3795 -2.5001 3.0716 8.2586 -6.5987 3.6891 -0.6914 -8.0014 -4.9552 16.3060 -78.6566 13.8312 -46.8952 31.1753 -20.8501 4.4646 -14.1991 22.6568 -2.4953 -26.4561 -0.5866 0.4764 -2.1465 12.5161 6.6271 72.4740 -26.4404 -46.9394 -25.7840 17.1210 -0.0006 -1.2359 -5.0278 -2.4953 26.4561 0.5866 
